<svg xmlns="http://www.w3.org/2000/svg" xmlns:xlink="http://www.w3.org/1999/xlink" version="1.1" x="0px" y="0px" viewBox="0 0 100 125" style="enable-background:new 0 0 100 100;" xml:space="preserve"><g><path d="M50,5C25,5,4.6,25.3,4.6,50.4S24.9,95.8,50,95.8c25,0,45.4-20.3,45.4-45.4S75,5,50,5z M50,85.7   c-19.5,0-35.4-15.9-35.4-35.4S30.5,14.9,50,14.9s35.4,15.9,35.4,35.4C85.4,69.9,69.5,85.7,50,85.7z"/><path d="M68.4,31.6c-2-2-5.1-2-7.1,0L50,42.9L38.7,31.6c-2-2-5.1-2-7.1,0s-2,5.1,0,7.1L42.9,50L31.6,61.3c-2,2-2,5.1,0,7.1   c1,1,2.3,1.5,3.5,1.5s2.6-0.5,3.5-1.5l11.3-11.3l11.3,11.3c1,1,2.3,1.5,3.5,1.5s2.6-0.5,3.5-1.5c2-2,2-5.1,0-7.1L56.9,50l11.3-11.3   C70.3,36.7,70.3,33.6,68.4,31.6z"/></g><text x="0" y="115" fill="#000000" font-size="5px" font-weight="bold" font-family="'Helvetica Neue', Helvetica, Arial-Unicode, Arial, Sans-serif">Created by Quan Do</text><text x="0" y="120" fill="#000000" font-size="5px" font-weight="bold" font-family="'Helvetica Neue', Helvetica, Arial-Unicode, Arial, Sans-serif">from the Noun Project</text></svg>